<mxfile host="app.diagrams.net" agent="Mozilla/5.0 (Windows NT 10.0; Win64; x64) AppleWebKit/537.36 (KHTML, like Gecko) Chrome/129.0.0.0 Safari/537.36" version="24.7.17">
  <diagram name="Page-1" id="1ZzqGJMSdT2vfjYEEYIq">
    <mxGraphModel dx="1909" dy="1027" grid="1" gridSize="10" guides="1" tooltips="1" connect="1" arrows="1" fold="1" page="1" pageScale="1" pageWidth="850" pageHeight="1100" math="0" shadow="0">
      <root>
        <mxCell id="0" />
        <mxCell id="1" parent="0" />
        <mxCell id="AtGkdyJ_QIL0bKP3A-hP-3" value="" style="edgeStyle=orthogonalEdgeStyle;rounded=0;orthogonalLoop=1;jettySize=auto;html=1;" edge="1" parent="1" source="AtGkdyJ_QIL0bKP3A-hP-1" target="AtGkdyJ_QIL0bKP3A-hP-2">
          <mxGeometry relative="1" as="geometry" />
        </mxCell>
        <mxCell id="AtGkdyJ_QIL0bKP3A-hP-1" value="start" style="ellipse;whiteSpace=wrap;html=1;" vertex="1" parent="1">
          <mxGeometry x="340" y="40" width="120" height="80" as="geometry" />
        </mxCell>
        <mxCell id="AtGkdyJ_QIL0bKP3A-hP-5" value="" style="edgeStyle=orthogonalEdgeStyle;rounded=0;orthogonalLoop=1;jettySize=auto;html=1;" edge="1" parent="1" source="AtGkdyJ_QIL0bKP3A-hP-2" target="AtGkdyJ_QIL0bKP3A-hP-4">
          <mxGeometry relative="1" as="geometry" />
        </mxCell>
        <mxCell id="AtGkdyJ_QIL0bKP3A-hP-2" value="int num," style="shape=parallelogram;perimeter=parallelogramPerimeter;whiteSpace=wrap;html=1;fixedSize=1;" vertex="1" parent="1">
          <mxGeometry x="340" y="210" width="120" height="60" as="geometry" />
        </mxCell>
        <mxCell id="AtGkdyJ_QIL0bKP3A-hP-7" value="" style="edgeStyle=orthogonalEdgeStyle;rounded=0;orthogonalLoop=1;jettySize=auto;html=1;" edge="1" parent="1" source="AtGkdyJ_QIL0bKP3A-hP-4" target="AtGkdyJ_QIL0bKP3A-hP-6">
          <mxGeometry relative="1" as="geometry" />
        </mxCell>
        <mxCell id="AtGkdyJ_QIL0bKP3A-hP-4" value="num/=2,num&amp;gt;1" style="whiteSpace=wrap;html=1;" vertex="1" parent="1">
          <mxGeometry x="340" y="350" width="120" height="60" as="geometry" />
        </mxCell>
        <mxCell id="AtGkdyJ_QIL0bKP3A-hP-9" value="true" style="edgeStyle=orthogonalEdgeStyle;rounded=0;orthogonalLoop=1;jettySize=auto;html=1;" edge="1" parent="1" source="AtGkdyJ_QIL0bKP3A-hP-6" target="AtGkdyJ_QIL0bKP3A-hP-8">
          <mxGeometry relative="1" as="geometry" />
        </mxCell>
        <mxCell id="AtGkdyJ_QIL0bKP3A-hP-11" value="false" style="edgeStyle=orthogonalEdgeStyle;rounded=0;orthogonalLoop=1;jettySize=auto;html=1;" edge="1" parent="1" source="AtGkdyJ_QIL0bKP3A-hP-6" target="AtGkdyJ_QIL0bKP3A-hP-10">
          <mxGeometry relative="1" as="geometry" />
        </mxCell>
        <mxCell id="AtGkdyJ_QIL0bKP3A-hP-6" value="num==1" style="rhombus;whiteSpace=wrap;html=1;" vertex="1" parent="1">
          <mxGeometry x="360" y="480" width="80" height="80" as="geometry" />
        </mxCell>
        <mxCell id="AtGkdyJ_QIL0bKP3A-hP-15" style="edgeStyle=orthogonalEdgeStyle;rounded=0;orthogonalLoop=1;jettySize=auto;html=1;entryX=1;entryY=0.5;entryDx=0;entryDy=0;" edge="1" parent="1" source="AtGkdyJ_QIL0bKP3A-hP-8" target="AtGkdyJ_QIL0bKP3A-hP-12">
          <mxGeometry relative="1" as="geometry">
            <Array as="points">
              <mxPoint x="580" y="670" />
            </Array>
          </mxGeometry>
        </mxCell>
        <mxCell id="AtGkdyJ_QIL0bKP3A-hP-8" value="2nin quvvetidir" style="shape=document;whiteSpace=wrap;html=1;boundedLbl=1;" vertex="1" parent="1">
          <mxGeometry x="500" y="480" width="120" height="80" as="geometry" />
        </mxCell>
        <mxCell id="AtGkdyJ_QIL0bKP3A-hP-10" value="2nin quvveti deyil" style="shape=document;whiteSpace=wrap;html=1;boundedLbl=1;" vertex="1" parent="1">
          <mxGeometry x="180" y="480" width="120" height="80" as="geometry" />
        </mxCell>
        <mxCell id="AtGkdyJ_QIL0bKP3A-hP-12" value="" style="ellipse;whiteSpace=wrap;html=1;" vertex="1" parent="1">
          <mxGeometry x="350" y="630" width="120" height="80" as="geometry" />
        </mxCell>
        <mxCell id="AtGkdyJ_QIL0bKP3A-hP-13" style="edgeStyle=orthogonalEdgeStyle;rounded=0;orthogonalLoop=1;jettySize=auto;html=1;entryX=-0.007;entryY=0.647;entryDx=0;entryDy=0;entryPerimeter=0;" edge="1" parent="1" source="AtGkdyJ_QIL0bKP3A-hP-10" target="AtGkdyJ_QIL0bKP3A-hP-12">
          <mxGeometry relative="1" as="geometry">
            <Array as="points">
              <mxPoint x="240" y="682" />
            </Array>
          </mxGeometry>
        </mxCell>
      </root>
    </mxGraphModel>
  </diagram>
</mxfile>
